Coordinates
version=1
nRows=6
nColumns=63
inDegrees=yes

Units are S.I. units (second, meters, Newtons, ...)
If the header above contains a line with 'inDegrees', this indicates whether rotational values are in degrees (yes) or radians (no).

endheader
time	pelvis_tilt	pelvis_list	pelvis_rotation	pelvis_tx	pelvis_ty	pelvis_tz	hip_flexion_r	hip_adduction_r	hip_rotation_r	knee_angle_r	knee_angle_r_beta	ankle_angle_r	subtalar_angle_r	mtp_angle_r	hip_flexion_l	hip_adduction_l	hip_rotation_l	knee_angle_l	knee_angle_l_beta	ankle_angle_l	subtalar_angle_l	mtp_angle_l	L5_S1_Flex_Ext	L5_S1_Lat_Bending	L5_S1_axial_rotation	L4_L5_Flex_Ext	L4_L5_Lat_Bending	L4_L5_axial_rotation	L3_L4_Flex_Ext	L3_L4_Lat_Bending	L3_L4_axial_rotation	L2_L3_Flex_Ext	L2_L3_Lat_Bending	L2_L3_axial_rotation	L1_L2_Flex_Ext	L1_L2_Lat_Bending	L1_L2_axial_rotation	L1_T12_Flex_Ext	L1_T12_Lat_Bending	L1_T12_axial_rotation	Abs_r3	Abs_r2	Abs_r1	Abs_t1	Abs_t2	neck_flexion	neck_bending	neck_rotation	arm_flex_r	arm_add_r	arm_rot_r	elbow_flex_r	pro_sup_r	wrist_flex_r	wrist_dev_r	arm_flex_l	arm_add_l	arm_rot_l	elbow_flex_l	pro_sup_l	wrist_flex_l	wrist_dev_l
      0.00000000	      5.47364574	     -3.30675768	     97.06072393	      0.26419571	      0.76093865	      0.54180986	     -2.19338576	      3.80407921	     -0.65376831	      6.38737094	      0.11148065	     19.92350546	     -0.95822894	      0.00000000	     -2.75755194	     -7.48350144	      0.68723090	      1.21309103	      0.02117243	     31.60163287	      8.71519147	      0.00000000	      0.05775668	      0.63592139	     -0.80727121	      0.10725992	      0.84577545	     -0.85772566	      0.09488844	      1.54617927	     -0.85772566	      0.06601010	      1.54617927	     -0.70636231	      0.05363285	      1.29677090	     -0.65590785	      0.03300216	      0.98504224	     -0.60545340	      0.41255016	      7.19366996	     -4.48980027	      0.00000000	      0.00000000	     24.48100943	      5.05512026	      1.55948586	      9.05678256	    -10.67027469	     45.62485672	     43.58084372	     71.63083029	      6.45172758	     16.17023705	     16.30076457	     -9.20060550	     60.41405654	     41.68513576	     88.75057990	      8.29440943	      7.52997720
      0.01694915	      5.23865049	     -3.78069373	     96.53518150	      0.26461882	      0.76054026	      0.54365819	     -1.40187574	      3.43047226	      0.31434755	      6.31193564	      0.11016406	     21.61770746	     -1.00995956	      0.00000000	     -2.28820204	     -7.15979486	      0.94137599	      1.44213302	      0.02516997	     30.88911383	      8.30368407	      0.00000000	      0.06787914	      0.59492378	     -0.69235074	      0.12605835	      0.79124863	     -0.73562266	      0.11151864	      1.44649768	     -0.73562266	      0.07757907	      1.44649768	     -0.60580690	      0.06303257	      1.21316858	     -0.56253498	      0.03878614	      0.92153694	     -0.51926306	      0.48485389	      6.72989680	     -3.85064713	      0.00000000	      0.00000000	     24.67734758	      4.64569675	      0.81035720	      9.51340960	    -10.49096786	     46.98150466	     43.15123611	     67.82849051	      5.25283536	     13.92500512	     16.19629913	     -8.89760941	     59.81380005	     40.83904906	     88.46523964	     10.21688508	      9.44066727
      0.03389831	      5.11823497	     -4.12226581	     96.63308740	      0.26395606	      0.76020341	      0.54540095	     -0.83541359	      3.20081650	      0.44556158	      6.23306782	      0.10878756	     22.60345063	     -1.06589003	      0.00000000	     -1.75731677	     -6.95600114	      1.85468470	      1.68491053	      0.02940724	     30.40036269	      7.57947712	      0.00000000	      0.07526187	      0.58520145	     -0.77235356	      0.13976882	      0.77831793	     -0.82062566	      0.12364773	      1.42285881	     -0.82062566	      0.08601679	      1.42285881	     -0.67580937	      0.06988818	      1.19334280	     -0.62753727	      0.04300463	      0.90647705	     -0.57926517	      0.53758803	      6.61991588	     -4.29559882	      0.00000000	      0.00000000	     24.76537456	      4.38618335	      1.13827549	     10.60384387	    -10.71530515	     50.31305655	     42.80634065	     62.24922474	      3.86226859	     12.60235466	     15.67525887	     -8.67410023	     58.18588079	     40.47778520	     88.23343862	     11.07282208	     10.78741923
      0.05084746	      4.95519964	     -4.27324921	     96.97195496	      0.26292597	      0.76005232	      0.54716185	     -0.36655096	      2.87088116	     -1.17396078	      6.55687129	      0.11443899	     23.68574293	      0.63965023	      0.00000000	     -1.31212273	     -6.73371263	      2.33849019	      1.97551976	      0.03447932	     30.25815529	      7.53912247	      0.00000000	      0.05907440	      0.57163831	     -0.83191455	      0.10970707	      0.76027895	     -0.88390921	      0.09705333	      1.38988139	     -0.88390921	      0.06751613	      1.38988139	     -0.72792523	      0.05485649	      1.16568484	     -0.67593057	      0.03375511	      0.88546774	     -0.62393591	      0.42196254	      6.46648690	     -4.62685914	      0.00000000	      0.00000000	     24.99848911	      4.23522544	      1.09458437	     11.10904765	    -10.84867095	     51.52673269	     42.69220886	     60.13751388	      3.45011435	     12.04426388	     15.91646721	     -8.59964723	     58.65787188	     40.22135864	     88.00120677	     10.27249470	     10.60724612
      0.06779661	      4.93399791	     -4.61195479	     96.62315623	      0.26266505	      0.75971829	      0.54835005	      0.21408140	      2.71044443	     -1.24317462	      6.74764089	      0.11776855	     23.97936590	      1.28333784	      0.00000000	     -0.91388802	     -6.60787871	      2.00231189	      1.99446431	      0.03480997	     30.13485452	      7.43187487	      0.00000000	      0.08721592	      0.57888298	     -0.79768103	      0.16196868	      0.76991436	     -0.84753609	      0.14328703	      1.40749607	     -0.84753609	      0.09967907	      1.40749607	     -0.69797090	      0.08098870	      1.18045817	     -0.64811584	      0.04983518	      0.89668973	     -0.59826077	      0.62297458	      6.54844003	     -4.43646258	      0.00000000	      0.00000000	     25.18360283	      3.97809816	      1.28186760	     11.47996202	    -10.97813387	     52.49944698	     42.40054488	     58.96977702	      3.74709908	     11.69938592	     15.47769627	     -8.21839598	     56.70052998	     39.98802456	     87.84659563	     11.75133696	     11.26159485
      0.08474576	      4.81256047	     -4.61908824	     96.85754883	      0.26175676	      0.75967582	      0.54969253	      0.49667377	      2.45864759	     -2.49888913	      7.20468584	      0.12574549	     24.39601063	      2.44575611	      0.00000000	     -0.72583007	     -6.43530143	      1.98070231	      2.01387760	      0.03514879	     30.19412796	      7.73868683	      0.00000000	      0.06331250	      0.57284525	     -0.83109261	      0.11757764	      0.76188419	     -0.88303590	      0.10401611	      1.39281595	     -0.88303590	      0.07235986	      1.39281595	     -0.72720603	      0.05879199	      1.16814604	     -0.67526274	      0.03617676	      0.88733730	     -0.62331946	      0.45223486	      6.48014007	     -4.62228776	      0.00000000	      0.00000000	     25.60466282	      3.94017464	      1.23143486	     11.88115422	    -11.20616180	     53.30484169	     42.38206431	     57.76745758	      3.70542288	     11.78267285	     15.83163032	     -8.23654389	     57.24251430	     40.15142092	     87.31068531	     10.79191710	     11.11354018
